<svg width="148" height="27" viewBox="0 0 148 27" fill="none" xmlns="http://www.w3.org/2000/svg">
<path d="M8.29055 26.7873H2V20.7473C2 14.7054 6.94474 9.78906 13.0214 9.78906H15V16.0435H13.0214C10.4118 16.0435 8.28877 18.1544 8.28877 20.749V26.7891L8.29055 26.7873Z" fill="#1C75BC"/>
<path d="M9.70191 6.58799C10.2396 4.16157 8.72151 1.70334 6.31123 1.0974C3.90095 0.491454 1.51117 1.96725 0.973514 4.39367C0.435857 6.8201 1.95392 9.27832 4.3642 9.88427C6.77448 10.4902 9.16426 9.01442 9.70191 6.58799Z" fill="#1C75BC"/>
<path d="M27.6751 19.2674L22 9H23.8917L27.4595 15.5287C27.9626 16.4512 28.4886 17.6793 28.4886 17.6793H28.5359C28.5359 17.6793 29.0391 16.4756 29.5651 15.5287L33.1328 9H35L29.3494 19.2674V26.9998H27.6734V19.2674H27.6751Z" fill="#123F6B"/>
<path d="M38.5 14C42.0926 14 45 16.7636 45 20.4376C45 24.1116 42.0926 26.9999 38.5 26.9999C34.9074 26.9999 32 24.1875 32 20.4376C32 16.6878 34.9074 14 38.5 14ZM38.5 25.4952C41.139 25.4952 43.2896 23.3241 43.2896 20.4376C43.2896 17.5512 41.139 15.5281 38.5 15.5281C35.861 15.5281 33.7104 17.6252 33.7104 20.4376C33.7104 23.25 35.861 25.4952 38.5 25.4952Z" fill="#123F6B"/>
<path d="M47.0017 14.3031H48.5904V16.1959C48.5904 16.7504 48.5436 17.2051 48.5436 17.2051H48.5904C49.1599 15.488 51.0559 14 52.9068 14C55.1119 14 56.2509 15.085 56.6051 17.1811H56.652C57.2927 15.4639 59.0237 14 61.0396 14C63.9322 14 65 15.793 65 18.9223V26.9999H63.387V19.3512C63.387 17.2809 62.9842 15.5638 60.8017 15.5638C58.9751 15.5638 57.4819 17.2809 57.0322 19.1478C56.8655 19.7024 56.8187 20.3086 56.8187 20.9907V26.998H55.2057V19.3493C55.2057 17.4307 54.9452 15.5619 52.6915 15.5619C50.7469 15.5619 49.2763 17.3549 48.7797 19.2976C48.6616 19.828 48.613 20.4084 48.613 20.9888V26.9962H47V14.2994L47.0017 14.3031Z" fill="#123F6B"/>
<path d="M74.6219 19.0316H75.3143V18.7102C75.3143 16.3172 74.002 15.5044 72.2202 15.5044C70.1648 15.5044 68.7056 16.6874 68.7056 16.6874L67.9135 15.4051C67.9135 15.4051 69.5467 14 72.3453 14C75.3397 14 77 15.6525 77 18.7607V26.7037H75.3904V25.3474C75.3904 24.7315 75.4394 24.3107 75.4394 24.3107H75.3904C75.3904 24.3107 74.35 26.9999 71.2324 26.9999C69.1533 26.9999 67 25.7916 67 23.3246C67 19.131 72.4704 19.0334 74.6237 19.0334L74.6219 19.0316ZM71.5025 25.5677C73.8787 25.5677 75.3143 23.1006 75.3143 20.9551V20.4133H74.5965C72.6408 20.4133 68.7292 20.4873 68.7292 23.2253C68.7292 24.3847 69.6446 25.5677 71.5025 25.5677Z" fill="#123F6B"/>
<path d="M79 9.00187H84.0716C85.8097 9.00187 86.537 9.15495 87.1713 9.40883C88.8613 10.0977 89.965 11.9066 89.965 14.2794C89.965 16.6521 88.7908 18.5114 86.984 19.148V19.1984C86.984 19.1984 87.1714 19.428 87.4774 20.0142L91 26.9998H88.3696L84.8711 19.835H81.3261V26.9998H79.0017V9L79 9.00187ZM84.6579 17.6452C86.4665 17.6452 87.5926 16.3963 87.5926 14.382C87.5926 13.0566 87.1232 12.1138 86.2774 11.6023C85.8321 11.3466 85.2906 11.1954 83.9994 11.1954H81.3226V17.6452H84.6562H84.6579Z" fill="#123F6B"/>
<path d="M96.8959 14C100.229 14 102 16.6003 102 19.813C102 20.1327 101.93 20.8438 101.93 20.8438H93.3311C93.4471 23.5663 95.2884 24.9401 97.3857 24.9401C99.4829 24.9401 100.882 23.4927 100.882 23.4927L101.814 25.2346C101.814 25.2346 100.067 26.9999 97.2457 26.9999C93.541 26.9999 91 24.1787 91 20.5008C91 16.5518 93.541 14.0018 96.8959 14.0018V14ZM99.6911 19.0516C99.6212 16.9182 98.3635 15.8874 96.8481 15.8874C95.1229 15.8874 93.7253 17.0152 93.3993 19.0516H99.6911Z" fill="#123F6B"/>
<path d="M109.3 14C112.253 14 113.719 15.8156 113.719 15.8156L112.65 17.4839C112.65 17.4839 111.395 16.0616 109.394 16.0616C107.022 16.0616 105.3 17.9256 105.3 20.4757C105.3 23.0258 107.022 24.9401 109.464 24.9401C111.65 24.9401 113.092 23.2718 113.092 23.2718L114 25.0137C114 25.0137 112.372 26.9999 109.302 26.9999C105.604 26.9999 103 24.2289 103 20.5008C103 16.7727 105.604 14.0018 109.302 14.0018L109.3 14Z" fill="#123F6B"/>
<path d="M116 14.1525H118.359V16.3873C118.359 16.9209 118.309 17.3522 118.309 17.3522H118.359C118.936 15.4725 120.417 14 122.373 14C122.699 14 123 14.0502 123 14.0502V16.4877C123 16.4877 122.675 16.4114 122.298 16.4114C120.742 16.4114 119.313 17.5289 118.736 19.4327C118.51 20.169 118.434 20.9555 118.434 21.7438V26.9999H116V14.1525Z" fill="#123F6B"/>
<path d="M124 14.0018H126.356V21.5805C126.356 23.3373 126.695 24.7432 128.662 24.7432C131.163 24.7432 132.644 22.4589 132.644 19.9486V14H135V26.6985H132.717V25.017C132.717 24.4896 132.765 24.089 132.765 24.089H132.717C132.207 25.3441 130.605 26.9999 128.201 26.9999C125.433 26.9999 124 25.4948 124 22.1318V14V14.0018Z" fill="#123F6B"/>
<path d="M137.384 14.176H139.617V26.9998H137.384V14.176ZM138.502 9C137.674 9 137 9.74048 137 10.6536C137 11.5666 137.672 12.3034 138.502 12.3034C139.331 12.3034 140 11.5648 140 10.6536C140 9.74234 139.329 9 138.502 9Z" fill="#123F6B"/>
<path d="M142.571 16.3489H141V14.4263H142.642V11H144.881V14.4263H147.786V16.3489H144.881V22.0679C144.881 24.5574 146.572 24.8787 147.453 24.8787C147.786 24.8787 148 24.83 148 24.83V26.9511C148 26.9511 147.667 26.9999 147.191 26.9999C145.643 26.9999 142.573 26.507 142.573 22.3405V16.3489H142.571Z" fill="#123F6B"/>
</svg>
